<svg width="325" height="73" viewBox="0 0 325 73" fill="none" xmlns="http://www.w3.org/2000/svg">
<g clip-path="url(#clip0_2277_365)">
<path d="M334 -7H-7V80.4359H334V-7Z" fill="#222222"/>
<path d="M1.74437 0.286133H0.287109V73.1494H1.74437V0.286133Z" fill="#F1EFE0"/>
<path d="M7.57445 0.286133H6.11719V64.4058H7.57445V0.286133Z" fill="#F1EFE0"/>
<path d="M13.403 0.286133H9.03125V64.4058H13.403V0.286133Z" fill="#F1EFE0"/>
<path d="M19.2312 0.286133H14.8594V64.4058H19.2312V0.286133Z" fill="#F1EFE0"/>
<path d="M22.1467 0.286133H20.6895V64.4058H22.1467V0.286133Z" fill="#F1EFE0"/>
<path d="M27.9753 0.286133H23.6035V64.4058H27.9753V0.286133Z" fill="#F1EFE0"/>
<path d="M30.8889 0.286133H29.4316V64.4058H30.8889V0.286133Z" fill="#F1EFE0"/>
<path d="M36.719 0.286133H35.2617V64.4058H36.719V0.286133Z" fill="#F1EFE0"/>
<path d="M39.633 0.286133H38.1758V64.4058H39.633V0.286133Z" fill="#F1EFE0"/>
<path d="M45.4616 0.286133H41.0898V64.4058H45.4616V0.286133Z" fill="#F1EFE0"/>
<path d="M48.3772 0.286133H46.9199V64.4058H48.3772V0.286133Z" fill="#F1EFE0"/>
<path d="M54.2058 0.286133H49.834V64.4058H54.2058V0.286133Z" fill="#F1EFE0"/>
<path d="M60.0354 0.286133H58.5781V64.4058H60.0354V0.286133Z" fill="#F1EFE0"/>
<path d="M62.9495 0.286133H61.4922V64.4058H62.9495V0.286133Z" fill="#F1EFE0"/>
<path d="M68.778 0.286133H64.4062V64.4058H68.778V0.286133Z" fill="#F1EFE0"/>
<path d="M74.6081 0.286133H70.2363V64.4058H74.6081V0.286133Z" fill="#F1EFE0"/>
<path d="M80.4362 0.286133H76.0645V64.4058H80.4362V0.286133Z" fill="#F1EFE0"/>
<path d="M86.2659 0.286133H84.8086V64.4058H86.2659V0.286133Z" fill="#F1EFE0"/>
<path d="M89.1799 0.286133H87.7227V64.4058H89.1799V0.286133Z" fill="#F1EFE0"/>
<path d="M92.0959 0.286133H90.6387V64.4058H92.0959V0.286133Z" fill="#F1EFE0"/>
<path d="M95.01 0.286133H93.5527V64.4058H95.01V0.286133Z" fill="#F1EFE0"/>
<path d="M97.9241 0.286133H96.4668V64.4058H97.9241V0.286133Z" fill="#F1EFE0"/>
<path d="M106.667 0.286133H102.295V64.4058H106.667V0.286133Z" fill="#F1EFE0"/>
<path d="M109.582 0.286133H108.125V64.4058H109.582V0.286133Z" fill="#F1EFE0"/>
<path d="M115.411 0.286133H111.039V64.4058H115.411V0.286133Z" fill="#F1EFE0"/>
<path d="M121.241 0.286133H116.869V64.4058H121.241V0.286133Z" fill="#F1EFE0"/>
<path d="M124.155 0.286133H122.697V64.4058H124.155V0.286133Z" fill="#F1EFE0"/>
<path d="M132.899 0.286133H128.527V64.4058H132.899V0.286133Z" fill="#F1EFE0"/>
<path d="M135.813 0.286133H134.355V64.4058H135.813V0.286133Z" fill="#F1EFE0"/>
<path d="M138.727 0.286133H137.27V64.4058H138.727V0.286133Z" fill="#F1EFE0"/>
<path d="M141.643 0.286133H140.186V64.4058H141.643V0.286133Z" fill="#F1EFE0"/>
<path d="M147.471 0.286133H143.1V64.4058H147.471V0.286133Z" fill="#F1EFE0"/>
<path d="M156.216 0.286133H151.844V64.4058H156.216V0.286133Z" fill="#F1EFE0"/>
<path d="M159.129 0.286133H157.672V64.4058H159.129V0.286133Z" fill="#F1EFE0"/>
<path d="M162.043 0.286133H160.586V64.4058H162.043V0.286133Z" fill="#F1EFE0"/>
<path d="M164.957 0.286133H163.5V64.4058H164.957V0.286133Z" fill="#F1EFE0"/>
<path d="M167.873 0.286133H166.416V64.4058H167.873V0.286133Z" fill="#F1EFE0"/>
<path d="M173.701 0.286133H172.244V64.4058H173.701V0.286133Z" fill="#F1EFE0"/>
<path d="M179.53 0.286133H175.158V64.4058H179.53V0.286133Z" fill="#F1EFE0"/>
<path d="M185.36 0.286133H180.988V64.4058H185.36V0.286133Z" fill="#F1EFE0"/>
<path d="M191.188 0.286133H186.816V64.4058H191.188V0.286133Z" fill="#F1EFE0"/>
<path d="M194.104 0.286133H192.646V64.4058H194.104V0.286133Z" fill="#F1EFE0"/>
<path d="M199.934 0.286133H198.477V64.4058H199.934V0.286133Z" fill="#F1EFE0"/>
<path d="M205.762 0.286133H201.391V64.4058H205.762V0.286133Z" fill="#F1EFE0"/>
<path d="M208.676 0.286133H207.219V64.4058H208.676V0.286133Z" fill="#F1EFE0"/>
<path d="M211.59 0.286133H210.133V64.4058H211.59V0.286133Z" fill="#F1EFE0"/>
<path d="M217.421 0.286133H213.049V64.4058H217.421V0.286133Z" fill="#F1EFE0"/>
<path d="M223.248 0.286133H221.791V64.4058H223.248V0.286133Z" fill="#F1EFE0"/>
<path d="M229.079 0.286133H224.707V64.4058H229.079V0.286133Z" fill="#F1EFE0"/>
<path d="M231.992 0.286133H230.535V64.4058H231.992V0.286133Z" fill="#F1EFE0"/>
<path d="M234.906 0.286133H233.449V64.4058H234.906V0.286133Z" fill="#F1EFE0"/>
<path d="M237.821 0.286133H236.363V64.4058H237.821V0.286133Z" fill="#F1EFE0"/>
<path d="M246.565 0.286133H242.193V64.4058H246.565V0.286133Z" fill="#F1EFE0"/>
<path d="M252.393 0.286133H248.021V64.4058H252.393V0.286133Z" fill="#F1EFE0"/>
<path d="M255.309 0.286133H253.852V64.4058H255.309V0.286133Z" fill="#F1EFE0"/>
<path d="M261.137 0.286133H256.766V64.4058H261.137V0.286133Z" fill="#F1EFE0"/>
<path d="M264.053 0.286133H262.596V64.4058H264.053V0.286133Z" fill="#F1EFE0"/>
<path d="M269.881 0.286133H268.424V64.4058H269.881V0.286133Z" fill="#F1EFE0"/>
<path d="M272.795 0.286133H271.338V64.4058H272.795V0.286133Z" fill="#F1EFE0"/>
<path d="M278.626 0.286133H274.254V64.4058H278.626V0.286133Z" fill="#F1EFE0"/>
<path d="M281.539 0.286133H280.082V64.4058H281.539V0.286133Z" fill="#F1EFE0"/>
<path d="M287.368 0.286133H282.996V64.4058H287.368V0.286133Z" fill="#F1EFE0"/>
<path d="M293.197 0.286133H291.74V64.4058H293.197V0.286133Z" fill="#F1EFE0"/>
<path d="M296.112 0.286133H294.654V64.4058H296.112V0.286133Z" fill="#F1EFE0"/>
<path d="M301.942 0.286133H297.57V64.4058H301.942V0.286133Z" fill="#F1EFE0"/>
<path d="M304.856 0.286133H303.398V64.4058H304.856V0.286133Z" fill="#F1EFE0"/>
<path d="M310.684 0.286133H309.227V64.4058H310.684V0.286133Z" fill="#F1EFE0"/>
<path d="M316.514 0.286133H312.143V64.4058H316.514V0.286133Z" fill="#F1EFE0"/>
<path d="M322.342 0.286133H317.971V64.4058H322.342V0.286133Z" fill="#F1EFE0"/>
<path d="M325.258 0.286133H323.801V73.1494H325.258V0.286133Z" fill="#F1EFE0"/>
<path d="M10.6018 68.1739H9.81484C9.81484 67.0634 10.5406 66.2415 12.0357 66.2415C13.0675 66.2415 13.9768 66.8448 13.9768 67.9116C13.9768 68.5498 13.662 68.952 13.05 69.1969V69.2144C13.9068 69.4504 14.1954 70.0013 14.1954 70.7095C14.1954 71.8986 13.3473 72.5282 12.0532 72.5282C10.5143 72.5282 9.65746 71.7238 9.65746 70.3598H10.4444C10.4444 71.2341 10.8466 71.8287 11.992 71.8287C13.0325 71.8287 13.4085 71.4352 13.4085 70.7095C13.4085 69.7652 12.7177 69.5991 12.1319 69.5991H11.4849V68.8996H12.0969C12.7177 68.8996 13.1899 68.611 13.1899 67.9116C13.1899 67.4219 12.8576 66.941 12.0357 66.941C10.8553 66.941 10.6018 67.5793 10.6018 68.1739ZM16.9368 68.4799H16.1498C16.1498 67.2296 16.8318 66.2415 18.327 66.2415C19.3587 66.2415 20.2506 66.8973 20.2506 68.0515C20.2506 70.1237 17.304 70.2461 16.928 71.6888V71.7063H20.1632V72.4058H15.975C15.975 71.3128 16.6657 70.4559 17.7762 69.8089C18.9041 69.1531 19.4637 68.9433 19.4637 68.0602C19.4637 67.5531 19.2363 66.941 18.3095 66.941C17.2515 66.941 16.9368 67.6492 16.9368 68.4799Z" fill="#F1EFE0"/>
<path d="M37.0136 66.3639H37.6256V72.4058H36.8387V67.8853C36.4715 68.2351 36.1217 68.2351 35.5796 68.2351V67.6667C36.6376 67.6667 36.9262 67.1509 37.0136 66.3639ZM42.2414 72.5282C40.5888 72.5282 39.9156 71.103 39.9156 69.3892C39.9156 67.6755 40.5888 66.2415 42.2414 66.2415C43.8939 66.2415 44.5672 67.6755 44.5672 69.3892C44.5672 71.103 43.8939 72.5282 42.2414 72.5282ZM42.2414 71.8287C43.3955 71.8287 43.7802 70.6745 43.7802 69.3892C43.7802 68.1039 43.3955 66.941 42.2414 66.941C41.0872 66.941 40.7025 68.1039 40.7025 69.3892C40.7025 70.6745 41.0872 71.8287 42.2414 71.8287ZM47.2804 68.1739H46.4935C46.4935 67.0634 47.2192 66.2415 48.7144 66.2415C49.7461 66.2415 50.6554 66.8448 50.6554 67.9116C50.6554 68.5498 50.3407 68.952 49.7286 69.1969V69.2144C50.5855 69.4504 50.874 70.0013 50.874 70.7095C50.874 71.8986 50.0259 72.5282 48.7319 72.5282C47.193 72.5282 46.3361 71.7238 46.3361 70.3598H47.123C47.123 71.2341 47.5252 71.8287 48.6706 71.8287C49.7111 71.8287 50.0871 71.4352 50.0871 70.7095C50.0871 69.7652 49.3964 69.5991 48.8105 69.5991H48.1635V68.8996H48.7756C49.3964 68.8996 49.8685 68.611 49.8685 67.9116C49.8685 67.4219 49.5363 66.941 48.7144 66.941C47.534 66.941 47.2804 67.5793 47.2804 68.1739ZM53.6154 68.4799H52.8285C52.8285 67.2296 53.5105 66.2415 55.0056 66.2415C56.0374 66.2415 56.9292 66.8973 56.9292 68.0515C56.9292 70.1237 53.9826 70.2461 53.6067 71.6888V71.7063H56.8418V72.4058H52.6536C52.6536 71.3128 53.3444 70.4559 54.4548 69.8089C55.5827 69.1531 56.1423 68.9433 56.1423 68.0602C56.1423 67.5531 55.915 66.941 54.9882 66.941C53.9302 66.941 53.6154 67.6492 53.6154 68.4799Z" fill="#F1EFE0"/>
<path d="M85.2784 66.3639H89.4666V66.976C88.0938 68.1301 86.9834 70.4559 86.9834 72.4058H86.1528C86.1528 70.386 87.5168 68.0427 88.5922 67.0809V67.0634H85.2784V66.3639ZM91.0744 70.7095C91.0744 69.8701 91.6165 69.4592 92.1936 69.2056V69.1881C91.7652 68.9608 91.3805 68.5761 91.3805 67.8941C91.3805 66.8536 92.1849 66.2415 93.339 66.2415C94.4932 66.2415 95.2976 66.8536 95.2976 67.8941C95.2976 68.5761 94.9041 68.9608 94.4844 69.1881V69.2056C95.0528 69.4592 95.6036 69.8701 95.6036 70.7095C95.6036 71.9249 94.6331 72.5282 93.339 72.5282C92.045 72.5282 91.0744 71.9249 91.0744 70.7095ZM93.339 68.8471C94.0385 68.8471 94.5107 68.5673 94.5107 67.8941C94.5107 67.2383 94.0385 66.941 93.339 66.941C92.6395 66.941 92.1674 67.2383 92.1674 67.8941C92.1674 68.5673 92.6395 68.8471 93.339 68.8471ZM93.339 71.8287C94.2396 71.8287 94.8167 71.4352 94.8167 70.6833C94.8167 69.9488 94.2396 69.5466 93.339 69.5466C92.4384 69.5466 91.8614 69.9488 91.8614 70.6833C91.8614 71.4352 92.4384 71.8287 93.339 71.8287ZM99.8284 72.5282C98.1758 72.5282 97.5026 71.103 97.5026 69.3892C97.5026 67.6755 98.1758 66.2415 99.8284 66.2415C101.481 66.2415 102.154 67.6755 102.154 69.3892C102.154 71.103 101.481 72.5282 99.8284 72.5282ZM99.8284 71.8287C100.983 71.8287 101.367 70.6745 101.367 69.3892C101.367 68.1039 100.983 66.941 99.8284 66.941C98.6742 66.941 98.2895 68.1039 98.2895 69.3892C98.2895 70.6745 98.6742 71.8287 99.8284 71.8287Z" fill="#F1EFE0"/>
<path d="M130.377 66.3639H130.989V72.4058H130.202V67.8853C129.835 68.2351 129.485 68.2351 128.943 68.2351V67.6667C130.001 67.6667 130.29 67.1509 130.377 66.3639ZM134.127 68.4799H133.34C133.34 67.2296 134.022 66.2415 135.517 66.2415C136.549 66.2415 137.441 66.8973 137.441 68.0515C137.441 70.1237 134.494 70.2461 134.118 71.6888V71.7063H137.353V72.4058H133.165C133.165 71.3128 133.856 70.4559 134.966 69.8089C136.094 69.1531 136.654 68.9433 136.654 68.0602C136.654 67.5531 136.427 66.941 135.5 66.941C134.442 66.941 134.127 67.6492 134.127 68.4799ZM140.08 68.1739H139.293C139.293 67.0634 140.019 66.2415 141.514 66.2415C142.546 66.2415 143.455 66.8448 143.455 67.9116C143.455 68.5498 143.141 68.952 142.528 69.1969V69.2144C143.385 69.4504 143.674 70.0013 143.674 70.7095C143.674 71.8986 142.826 72.5282 141.532 72.5282C139.993 72.5282 139.136 71.7238 139.136 70.3598H139.923C139.923 71.2341 140.325 71.8287 141.47 71.8287C142.511 71.8287 142.887 71.4352 142.887 70.7095C142.887 69.7652 142.196 69.5991 141.61 69.5991H140.963V68.8996H141.575C142.196 68.8996 142.668 68.611 142.668 67.9116C142.668 67.4219 142.336 66.941 141.514 66.941C140.334 66.941 140.08 67.5793 140.08 68.1739ZM146.284 68.1739H145.497C145.497 67.0634 146.223 66.2415 147.718 66.2415C148.75 66.2415 149.659 66.8448 149.659 67.9116C149.659 68.5498 149.344 68.952 148.732 69.1969V69.2144C149.589 69.4504 149.878 70.0013 149.878 70.7095C149.878 71.8986 149.03 72.5282 147.736 72.5282C146.197 72.5282 145.34 71.7238 145.34 70.3598H146.127C146.127 71.2341 146.529 71.8287 147.674 71.8287C148.715 71.8287 149.091 71.4352 149.091 70.7095C149.091 69.7652 148.4 69.5991 147.814 69.5991H147.167V68.8996H147.779C148.4 68.8996 148.872 68.611 148.872 67.9116C148.872 67.4219 148.54 66.941 147.718 66.941C146.538 66.941 146.284 67.5793 146.284 68.1739ZM153.117 66.3639H153.73V72.4058H152.943V67.8853C152.575 68.2351 152.226 68.2351 151.684 68.2351V67.6667C152.742 67.6667 153.03 67.1509 153.117 66.3639Z" fill="#F1EFE0"/>
<path d="M177.16 69.4067C176.863 69.975 176.251 70.3073 175.542 70.3073C174.388 70.3073 173.584 69.5116 173.584 68.3138C173.584 67.1946 174.371 66.2415 175.682 66.2415C177.335 66.2415 177.947 67.4656 177.947 69.3892C177.947 71.4002 177.16 72.5282 175.656 72.5282C174.528 72.5282 173.829 71.7587 173.741 70.8756H174.528C174.607 71.4615 174.974 71.8287 175.656 71.8287C176.906 71.8287 177.142 70.6396 177.16 69.4242V69.4067ZM175.682 66.941C174.852 66.941 174.371 67.4569 174.371 68.2613C174.371 69.1269 174.895 69.6078 175.612 69.6078C176.487 69.6078 177.072 69.057 177.072 68.2438C177.072 67.4656 176.557 66.941 175.682 66.941ZM183.449 69.4067C183.152 69.975 182.54 70.3073 181.832 70.3073C180.677 70.3073 179.873 69.5116 179.873 68.3138C179.873 67.1946 180.66 66.2415 181.971 66.2415C183.624 66.2415 184.236 67.4656 184.236 69.3892C184.236 71.4002 183.449 72.5282 181.945 72.5282C180.817 72.5282 180.118 71.7587 180.03 70.8756H180.817C180.896 71.4615 181.263 71.8287 181.945 71.8287C183.196 71.8287 183.432 70.6396 183.449 69.4242V69.4067ZM181.971 66.941C181.141 66.941 180.66 67.4569 180.66 68.2613C180.66 69.1269 181.185 69.6078 181.901 69.6078C182.776 69.6078 183.362 69.057 183.362 68.2438C183.362 67.4656 182.846 66.941 181.971 66.941ZM188.523 72.5282C186.87 72.5282 186.197 71.103 186.197 69.3892C186.197 67.6755 186.87 66.2415 188.523 66.2415C190.176 66.2415 190.849 67.6755 190.849 69.3892C190.849 71.103 190.176 72.5282 188.523 72.5282ZM188.523 71.8287C189.677 71.8287 190.062 70.6745 190.062 69.3892C190.062 68.1039 189.677 66.941 188.523 66.941C187.369 66.941 186.984 68.1039 186.984 69.3892C186.984 70.6745 187.369 71.8287 188.523 71.8287ZM192.749 70.7095C192.749 69.8701 193.291 69.4592 193.868 69.2056V69.1881C193.44 68.9608 193.055 68.5761 193.055 67.8941C193.055 66.8536 193.859 66.2415 195.013 66.2415C196.168 66.2415 196.972 66.8536 196.972 67.8941C196.972 68.5761 196.579 68.9608 196.159 69.1881V69.2056C196.727 69.4592 197.278 69.8701 197.278 70.7095C197.278 71.9249 196.308 72.5282 195.013 72.5282C193.719 72.5282 192.749 71.9249 192.749 70.7095ZM195.013 68.8471C195.713 68.8471 196.185 68.5673 196.185 67.8941C196.185 67.2383 195.713 66.941 195.013 66.941C194.314 66.941 193.842 67.2383 193.842 67.8941C193.842 68.5673 194.314 68.8471 195.013 68.8471ZM195.013 71.8287C195.914 71.8287 196.491 71.4352 196.491 70.6833C196.491 69.9488 195.914 69.5466 195.013 69.5466C194.113 69.5466 193.536 69.9488 193.536 70.6833C193.536 71.4352 194.113 71.8287 195.013 71.8287ZM200.523 66.3639H201.136V72.4058H200.349V67.8853C199.981 68.2351 199.632 68.2351 199.09 68.2351V67.6667C200.148 67.6667 200.436 67.1509 200.523 66.3639ZM204.772 66.3639H205.384V72.4058H204.597V67.8853C204.23 68.2351 203.88 68.2351 203.338 68.2351V67.6667C204.396 67.6667 204.685 67.1509 204.772 66.3639ZM210 72.5282C208.347 72.5282 207.674 71.103 207.674 69.3892C207.674 67.6755 208.347 66.2415 210 66.2415C211.652 66.2415 212.326 67.6755 212.326 69.3892C212.326 71.103 211.652 72.5282 210 72.5282ZM210 71.8287C211.154 71.8287 211.539 70.6745 211.539 69.3892C211.539 68.1039 211.154 66.941 210 66.941C208.846 66.941 208.461 68.1039 208.461 69.3892C208.461 70.6745 208.846 71.8287 210 71.8287Z" fill="#F1EFE0"/>
<path d="M244.121 66.3639H244.733V72.4058H243.946V67.8853C243.579 68.2351 243.229 68.2351 242.687 68.2351V67.6667C243.745 67.6667 244.034 67.1509 244.121 66.3639ZM247.871 68.4799H247.084C247.084 67.2296 247.766 66.2415 249.262 66.2415C250.293 66.2415 251.185 66.8973 251.185 68.0515C251.185 70.1237 248.239 70.2461 247.863 71.6888V71.7063H251.098V72.4058H246.91C246.91 71.3128 247.6 70.4559 248.711 69.8089C249.839 69.1531 250.398 68.9433 250.398 68.0602C250.398 67.5531 250.171 66.941 249.244 66.941C248.186 66.941 247.871 67.6492 247.871 68.4799ZM255.433 72.5282C253.781 72.5282 253.108 71.103 253.108 69.3892C253.108 67.6755 253.781 66.2415 255.433 66.2415C257.086 66.2415 257.759 67.6755 257.759 69.3892C257.759 71.103 257.086 72.5282 255.433 72.5282ZM255.433 71.8287C256.588 71.8287 256.972 70.6745 256.972 69.3892C256.972 68.1039 256.588 66.941 255.433 66.941C254.279 66.941 253.895 68.1039 253.895 69.3892C253.895 70.6745 254.279 71.8287 255.433 71.8287ZM262.081 72.5282C260.429 72.5282 259.755 71.103 259.755 69.3892C259.755 67.6755 260.429 66.2415 262.081 66.2415C263.734 66.2415 264.407 67.6755 264.407 69.3892C264.407 71.103 263.734 72.5282 262.081 72.5282ZM262.081 71.8287C263.235 71.8287 263.62 70.6745 263.62 69.3892C263.62 68.1039 263.235 66.941 262.081 66.941C260.927 66.941 260.542 68.1039 260.542 69.3892C260.542 70.6745 260.927 71.8287 262.081 71.8287ZM267.12 68.1739H266.333C266.333 67.0634 267.059 66.2415 268.554 66.2415C269.586 66.2415 270.495 66.8448 270.495 67.9116C270.495 68.5498 270.181 68.952 269.569 69.1969V69.2144C270.425 69.4504 270.714 70.0013 270.714 70.7095C270.714 71.8986 269.866 72.5282 268.572 72.5282C267.033 72.5282 266.176 71.7238 266.176 70.3598H266.963C266.963 71.2341 267.365 71.8287 268.511 71.8287C269.551 71.8287 269.927 71.4352 269.927 70.7095C269.927 69.7652 269.236 69.5991 268.65 69.5991H268.003V68.8996H268.615C269.236 68.8996 269.708 68.611 269.708 67.9116C269.708 67.4219 269.376 66.941 268.554 66.941C267.374 66.941 267.12 67.5793 267.12 68.1739Z" fill="#F1EFE0"/>
<path d="M306.575 68.4799H305.788C305.788 67.2296 306.47 66.2415 307.965 66.2415C308.997 66.2415 309.889 66.8973 309.889 68.0515C309.889 70.1237 306.942 70.2461 306.566 71.6888V71.7063H309.801V72.4058H305.613C305.613 71.3128 306.304 70.4559 307.414 69.8089C308.542 69.1531 309.102 68.9433 309.102 68.0602C309.102 67.5531 308.874 66.941 307.947 66.941C306.89 66.941 306.575 67.6492 306.575 68.4799ZM312.659 68.4799H311.872C311.872 67.2296 312.554 66.2415 314.049 66.2415C315.081 66.2415 315.973 66.8973 315.973 68.0515C315.973 70.1237 313.026 70.2461 312.65 71.6888V71.7063H315.885V72.4058H311.697C311.697 71.3128 312.388 70.4559 313.498 69.8089C314.626 69.1531 315.186 68.9433 315.186 68.0602C315.186 67.5531 314.959 66.941 314.032 66.941C312.974 66.941 312.659 67.6492 312.659 68.4799ZM318.743 68.4799H317.956C317.956 67.2296 318.638 66.2415 320.134 66.2415C321.165 66.2415 322.057 66.8973 322.057 68.0515C322.057 70.1237 319.111 70.2461 318.735 71.6888V71.7063H321.97V72.4058H317.782C317.782 71.3128 318.472 70.4559 319.583 69.8089C320.711 69.1531 321.27 68.9433 321.27 68.0602C321.27 67.5531 321.043 66.941 320.116 66.941C319.058 66.941 318.743 67.6492 318.743 68.4799Z" fill="#F1EFE0"/>
</g>
<defs>
<clipPath id="clip0_2277_365">
<rect width="325" height="73" fill="white"/>
</clipPath>
</defs>
</svg>
