<svg width="481" height="39" viewBox="0 0 481 39" fill="none" xmlns="http://www.w3.org/2000/svg">
<g clip-path="url(#clip0_3299_54)">
<path d="M399.184 27.944H400.672V39H398.816V30.984C398.16 31.624 397.424 31.624 396.496 31.624V30.296C398.496 30.296 399.072 29.304 399.184 27.944ZM403.892 31.288H402.084C402.084 29.224 403.492 27.704 406.26 27.704C408.212 27.704 409.94 28.808 409.94 30.76C409.94 31.944 409.332 32.68 408.276 33.128V33.16C409.78 33.592 410.308 34.584 410.308 35.896C410.308 38.072 408.692 39.24 406.292 39.24C403.38 39.24 401.796 37.752 401.796 35.208H403.588C403.588 36.696 404.276 37.656 406.164 37.656C407.828 37.656 408.468 37.016 408.468 35.848C408.468 34.328 407.364 33.992 406.228 33.992H405.236V32.52H406.164C407.316 32.52 408.084 32.04 408.084 30.904C408.084 29.992 407.508 29.288 406.196 29.288C404.452 29.288 403.892 30.2 403.892 31.288ZM416.599 27.56L412.167 39H410.631L415.063 27.56H416.599ZM421.049 39.24C417.929 39.24 416.601 36.616 416.601 33.48C416.601 30.344 417.929 27.704 421.049 27.704C424.169 27.704 425.497 30.344 425.497 33.48C425.497 36.616 424.169 39.24 421.049 39.24ZM421.049 37.656C423.001 37.656 423.641 35.784 423.641 33.48C423.641 31.176 423.001 29.288 421.049 29.288C419.097 29.288 418.441 31.176 418.441 33.48C418.441 35.784 419.097 37.656 421.049 37.656ZM433.239 39H431.383V36.488H426.151V34.76L431.383 27.944H433.239V34.92H434.791V36.488H433.239V39ZM431.383 30.248L427.799 34.92H431.383V30.248ZM440.983 27.56L436.551 39H435.015L439.447 27.56H440.983ZM442.998 31.864H441.206C441.206 29.48 442.486 27.704 445.318 27.704C447.366 27.704 448.982 28.92 448.982 31.032C448.982 34.552 444.262 35.144 443.35 37.4V37.432H448.87V39H440.934C440.934 37.048 442.102 35.624 443.798 34.552C445.83 33.208 447.126 32.68 447.126 31.112C447.126 30.2 446.694 29.288 445.27 29.288C443.622 29.288 442.998 30.344 442.998 31.864ZM454.285 39.24C451.165 39.24 449.837 36.616 449.837 33.48C449.837 30.344 451.165 27.704 454.285 27.704C457.405 27.704 458.733 30.344 458.733 33.48C458.733 36.616 457.405 39.24 454.285 39.24ZM454.285 37.656C456.237 37.656 456.877 35.784 456.877 33.48C456.877 31.176 456.237 29.288 454.285 29.288C452.333 29.288 451.677 31.176 451.677 33.48C451.677 35.784 452.333 37.656 454.285 37.656ZM461.405 31.864H459.613C459.613 29.48 460.893 27.704 463.725 27.704C465.773 27.704 467.389 28.92 467.389 31.032C467.389 34.552 462.669 35.144 461.757 37.4V37.432H467.277V39H459.341C459.341 37.048 460.509 35.624 462.205 34.552C464.237 33.208 465.533 32.68 465.533 31.112C465.533 30.2 465.101 29.288 463.677 29.288C462.029 29.288 461.405 30.344 461.405 31.864ZM472.66 31.544C474.788 31.544 476.244 33.08 476.244 35.24C476.244 37.704 474.468 39.24 472.164 39.24C469.46 39.24 467.988 37.64 467.924 35.736H469.764C469.876 36.728 470.532 37.656 472.068 37.656C473.428 37.656 474.388 36.824 474.388 35.224C474.388 33.72 473.508 33.016 472.164 33.016C471.3 33.016 470.516 33.32 469.988 33.976H468.116L469.316 27.944H475.684V29.512H470.708L470.116 32.472V32.504C470.692 31.912 471.508 31.544 472.66 31.544Z" fill="#F1EFE0"/>
<path d="M17.328 26.856C15.024 25.992 12.72 25.128 10.416 24.264C9.168 23.784 7.896 23.304 6.672 22.8C6.288 22.656 6.048 22.656 5.784 22.992C5.064 23.952 4.32 24.912 3.6 25.896C3.096 26.592 2.592 27.312 2.112 28.056C1.824 28.488 1.584 28.992 1.344 29.448C1.176 29.736 0.936 29.952 0.6 29.784C0.288 29.64 0.192 29.304 0.336 29.016C0.744 28.2 1.128 27.36 1.632 26.616C2.64 25.128 3.696 23.712 4.752 22.272C5.04 21.888 5.328 21.528 5.376 21.024C5.424 20.76 5.64 20.424 5.88 20.304C6.888 19.8 7.416 18.816 8.112 18.024C10.008 15.864 11.856 13.68 13.728 11.496C13.776 11.448 13.8 11.4 13.848 11.352C14.088 11.136 14.304 10.776 14.688 11.016C15 11.208 15.024 11.76 14.76 12.12C14.376 12.6 13.992 13.08 13.608 13.536C12.552 14.784 11.472 16.056 10.416 17.304C9.984 17.784 9.552 18.264 9.144 18.744C9.072 18.816 9.072 18.912 9.024 19.008C9.144 19.032 9.264 19.104 9.384 19.08C10.728 18.768 12.072 18.456 13.416 18.144C17.376 17.232 21.36 16.368 25.248 15.144C27.288 14.52 29.304 13.848 31.104 12.696C32.736 11.64 32.736 11.112 31.08 10.08C29.448 9.072 27.6 8.664 25.752 8.352C23.616 7.992 21.456 7.8 19.152 7.896C16.704 7.824 14.112 8.064 11.568 8.472C8.856 8.904 6.12 9.288 3.552 10.416C2.856 10.728 2.064 10.848 1.44 11.352C1.296 11.472 1.104 11.568 0.96 11.688C0.48 12.12 0.528 12.36 1.104 12.672C1.248 12.744 1.416 12.768 1.56 12.864C1.68 12.936 1.752 13.08 1.848 13.176C1.728 13.2 1.584 13.272 1.488 13.248C1.248 13.2 1.008 13.128 0.792 13.056C0 12.744 -0.24 11.952 0.264 11.256C0.504 10.944 0.84 10.68 1.152 10.464C2.856 9.216 4.8 8.568 6.792 8.04C9.792 7.248 12.864 6.696 15.96 6.504C19.104 6.312 22.272 6.24 25.416 6.744C27.384 7.056 29.256 7.512 31.032 8.376C31.584 8.64 32.112 9.024 32.592 9.456C33.36 10.128 33.504 10.992 33.168 11.952C32.832 12.888 32.184 13.512 31.344 14.016C29.784 14.976 28.056 15.576 26.328 16.128C23.136 17.16 19.872 17.976 16.56 18.6C15.384 18.816 14.232 19.152 13.056 19.416C12.48 19.536 11.88 19.656 11.304 19.776C10.248 19.968 9.192 20.112 8.16 20.376C7.56 20.52 7.248 21.12 6.912 21.624C6.744 21.888 7.008 21.984 7.176 22.056C8.04 22.44 8.904 22.824 9.792 23.16C14.688 25.056 19.584 26.928 24.504 28.8C24.768 28.896 25.224 28.92 25.104 29.304C24.96 29.736 24.528 29.52 24.24 29.4C21.936 28.56 19.632 27.72 17.328 26.856ZM22.791 24.072C22.455 24.216 22.071 24.336 21.711 24.36C21.087 24.432 20.631 23.904 20.847 23.304C21.039 22.752 21.303 22.224 21.591 21.72C22.047 20.928 22.503 20.136 23.055 19.416C23.295 19.056 23.703 18.768 24.087 18.576C24.807 18.168 25.407 18.36 25.863 19.032C25.959 19.152 26.031 19.296 26.079 19.416C26.175 19.608 26.271 19.824 26.367 20.016C26.343 19.8 26.343 19.608 26.319 19.416C26.271 18.984 26.391 18.72 26.751 18.528C26.991 18.408 27.231 18.336 27.471 18.528C27.687 18.672 27.783 18.912 27.735 19.176C27.687 19.392 27.567 19.608 27.495 19.824C27.327 20.208 27.351 20.376 27.735 20.568C28.071 20.736 28.431 20.856 28.791 20.904C29.343 21 29.919 21 30.471 21.024V21C30.687 21.024 30.927 21 31.143 21.072C31.263 21.096 31.383 21.264 31.407 21.36C31.431 21.456 31.287 21.576 31.215 21.648C31.167 21.696 31.071 21.72 30.999 21.72C29.679 21.864 28.359 21.96 27.255 21C26.943 20.736 26.751 20.784 26.535 21.12C25.911 22.032 25.071 22.704 24.159 23.304C23.703 23.568 23.271 23.856 22.791 24.072ZM21.663 23.304C21.639 23.352 21.711 23.472 21.759 23.496C21.855 23.52 21.975 23.496 22.047 23.448C23.463 22.896 24.663 22.056 25.671 20.928C25.743 20.856 25.791 20.76 25.815 20.712C25.671 20.28 25.575 19.896 25.407 19.536C25.335 19.416 25.071 19.344 24.903 19.368C24.375 19.416 23.967 19.728 23.631 20.112C22.839 21.096 22.239 22.2 21.663 23.304ZM31.2429 26.376C32.9469 25.584 34.0269 24.168 34.9869 22.608C35.1789 22.296 35.4189 21.984 35.6109 21.672C35.6589 21.624 35.6349 21.552 35.6589 21.48C35.5869 21.48 35.5149 21.456 35.4429 21.48C35.0589 21.72 34.6749 21.96 34.2909 22.176C33.8829 22.416 33.4749 22.656 33.0669 22.896C32.3949 23.28 31.7229 23.688 31.0269 24.048C30.8109 24.192 30.5229 24.288 30.2589 24.336C29.6829 24.432 29.2029 24 29.2029 23.328C29.2989 22.872 29.5869 22.392 29.9229 21.96C30.6429 21.072 31.5309 20.352 32.3949 19.608C32.4429 19.584 32.4909 19.56 32.5149 19.512C32.7309 19.368 32.9469 19.2 33.1869 19.464C33.3549 19.656 33.3549 20.088 33.1629 20.28C32.8989 20.568 32.5869 20.784 32.3229 21.072C31.6509 21.744 31.0029 22.44 30.3549 23.136C30.3069 23.208 30.3309 23.328 30.3309 23.4C30.4029 23.4 30.4749 23.424 30.5469 23.4C31.2429 23.064 31.9629 22.728 32.6349 22.344C33.9789 21.648 35.2989 20.904 36.6429 20.184C36.8589 20.064 37.0509 19.848 37.3149 20.04C37.5069 20.16 37.6029 20.592 37.4829 20.88C37.4349 21.024 37.3149 21.144 37.2429 21.264C36.8349 21.912 36.4029 22.536 35.9949 23.16C35.9469 23.28 35.8989 23.4 35.8509 23.496C35.9949 23.472 36.1389 23.448 36.2589 23.376C37.5789 22.608 38.9229 21.84 40.2669 21.072C40.6269 20.88 41.0109 20.664 41.3949 20.496C41.5629 20.424 41.7789 20.328 41.8509 20.544C41.8749 20.664 41.7549 20.88 41.6349 20.976C40.9629 21.384 40.2909 21.768 39.6189 22.152C38.2269 22.968 36.8589 23.736 35.4669 24.552C34.8189 24.912 34.3389 25.464 33.8829 26.04C32.4189 27.816 30.7389 29.376 28.7469 30.552C28.1949 30.888 27.5949 31.08 27.0189 31.32C26.7549 31.44 26.5149 31.368 26.3469 31.152C26.1549 30.912 26.1309 30.672 26.2989 30.456C26.4909 30.192 26.6829 29.928 26.9229 29.688C28.1229 28.536 29.4669 27.552 30.8589 26.616C30.9789 26.544 31.0989 26.424 31.2429 26.376ZM27.4989 30.312C28.8909 29.568 30.0429 28.536 31.1469 27.408C31.1709 27.36 31.1709 27.288 31.1949 27.216C31.1229 27.24 31.0509 27.24 31.0029 27.288C29.7309 28.176 28.4349 29.064 27.3069 30.144C27.2829 30.168 27.2349 30.216 27.2109 30.264C27.2109 30.288 27.2109 30.336 27.2109 30.384C27.2349 30.384 27.2589 30.408 27.3069 30.408C27.3549 30.384 27.4269 30.36 27.4989 30.312ZM40.6764 24C40.3644 24.168 40.0524 24.24 39.7404 24C39.4524 23.76 39.3564 23.376 39.5244 22.944C39.5724 22.8 39.6444 22.68 39.7404 22.56C39.8604 22.344 40.0044 22.128 40.1724 21.936C40.8444 21.12 41.4924 20.256 42.3564 19.632C43.1004 19.104 43.6524 19.152 44.3004 19.8C44.3484 19.848 44.3724 19.872 44.3964 19.92C44.6124 20.208 44.8044 20.256 45.0924 20.016C45.3084 19.824 45.5484 19.68 45.7644 19.536C46.1004 19.344 46.3644 19.464 46.4364 19.848C46.5084 20.112 46.4364 20.328 46.2684 20.544C45.7164 21.264 45.4044 22.128 45.0444 22.944C45.0204 23.016 45.0444 23.136 45.0684 23.136C45.1404 23.184 45.2604 23.184 45.3324 23.16C45.5484 23.064 45.7644 22.944 45.9804 22.8C47.6844 21.792 47.4204 21.864 49.1244 20.856C49.2924 20.76 49.6524 20.424 49.8204 20.688C50.0124 21.024 49.6284 21.144 49.4364 21.264C48.1884 22.056 48.7644 21.768 47.5164 22.584C46.9404 22.944 46.3884 23.352 45.8364 23.736C45.7164 23.808 45.5724 23.904 45.4284 23.952C44.8284 24.192 44.3004 23.856 44.2764 22.992C44.3964 22.704 44.5404 22.224 44.7084 21.744C44.7804 21.576 44.8764 21.432 44.9484 21.264C44.9724 21.192 44.9484 21.096 44.9484 21C44.8764 21.024 44.7564 21.024 44.6844 21.072C44.4204 21.264 44.1324 21.456 43.8924 21.672C42.8604 22.488 41.8524 23.352 40.6764 24ZM42.9804 20.64C42.3084 21.288 41.6604 21.96 41.0124 22.632C40.9644 22.68 40.9884 22.8 40.9644 22.872C41.0364 22.872 41.1324 22.872 41.1804 22.848C42.1164 22.152 43.0764 21.48 44.0124 20.784C44.0364 20.76 44.0364 20.712 44.0844 20.64C44.0124 20.568 43.9644 20.496 43.8684 20.448C43.5324 20.28 43.2204 20.4 42.9804 20.64ZM75.8955 23.736C76.2795 23.496 76.6875 23.232 77.0715 22.968C77.1675 22.92 77.1915 22.776 77.2635 22.656C77.1435 22.608 77.0235 22.536 76.9035 22.536C76.7355 22.512 76.5675 22.56 76.3995 22.56C75.4635 22.608 74.5275 22.632 73.5915 22.752C72.7515 22.848 71.8635 22.8 71.0715 23.136C70.9275 23.184 70.7355 23.112 70.5675 23.136C69.2475 23.304 67.9275 23.448 66.6315 23.76C66.1035 23.88 65.5755 23.976 65.1675 24.408C65.0955 24.504 64.8315 24.408 64.6395 24.408C64.6635 24.216 64.6155 23.976 64.7355 23.88C64.9515 23.664 65.2155 23.52 65.5035 23.424C67.0635 22.752 68.7195 22.416 70.3995 22.248C73.1835 21.936 75.9675 21.696 78.7515 21.48C79.2795 21.432 79.7355 21.312 80.1675 21.024C84.0555 18.48 88.0155 16.032 91.7115 13.2C92.6235 12.504 93.4875 11.76 94.3275 10.968C94.7835 10.536 95.1675 10.032 95.5275 9.48C95.9835 8.76 95.8635 8.328 94.9995 8.016C94.2795 7.752 93.5355 7.584 92.7675 7.44C92.1915 7.32 91.5675 7.32 90.9675 7.272C90.6795 7.248 90.3675 7.2 90.0795 7.224C86.7915 7.536 83.5275 7.824 80.3115 8.64C77.9835 9.24 75.7035 9.96 73.4955 10.968C72.3435 11.496 71.2635 12.168 70.2555 12.936C69.5595 13.464 68.8155 13.992 68.4075 14.88C67.7355 16.32 67.8315 17.232 69.0315 18.384C69.1035 18.48 69.1515 18.6 69.2235 18.696C69.1035 18.696 68.9595 18.72 68.8635 18.672C68.0715 18.24 67.6395 17.52 67.4475 16.656C67.2555 15.648 67.3755 14.688 68.0475 13.896C68.6955 13.128 69.3675 12.36 70.1595 11.76C71.0955 11.04 72.1275 10.44 73.1835 9.936C77.5995 7.752 82.3035 6.696 87.1755 6.24C89.3595 6.048 91.5435 6 93.7035 6.432C94.2795 6.528 94.8315 6.696 95.3355 6.96C96.4395 7.512 96.7755 8.448 96.3675 9.576C96.1995 10.032 95.9835 10.464 95.6715 10.824C94.6395 12.096 93.4155 13.2 92.0475 14.136C91.1595 14.736 90.3675 15.456 89.5275 16.104C88.8555 16.608 88.1595 17.088 87.4635 17.544C86.3595 18.264 85.2555 18.96 84.1515 19.68C83.5275 20.064 82.9275 20.496 82.3035 20.904C82.2555 20.952 82.2315 21.072 82.1835 21.144C82.2795 21.192 82.3995 21.288 82.5195 21.288C83.7915 21.264 85.0635 21.216 86.3355 21.192C87.0075 21.168 87.7035 21.192 88.3755 21.192C88.3755 21.168 88.3755 21.144 88.3755 21.144C90.5835 21.192 92.8155 21.192 95.0235 21.288C95.8395 21.312 96.6315 21.552 97.3995 21.72C97.5435 21.744 97.6395 21.984 97.7595 22.128C97.5675 22.248 97.3035 22.464 97.2075 22.416C96.6315 22.104 96.0075 22.272 95.4315 22.152C94.4475 21.96 93.4155 22.056 92.4315 22.08C91.2075 22.104 90.0075 22.224 88.8075 22.104C88.3275 22.032 87.7995 22.128 87.3195 22.128C86.3115 22.152 85.2795 22.2 84.2715 22.176C83.7435 22.176 83.2395 22.008 82.7115 22.344C82.5195 22.488 82.1355 22.392 81.8235 22.344C80.8155 22.176 79.9035 22.392 79.0635 22.968C78.4155 23.4 77.7195 23.736 77.0715 24.144C75.7755 24.984 74.5275 25.848 73.2555 26.712C72.8235 26.976 72.4155 27.264 71.9835 27.528C70.4955 28.416 68.9835 29.28 67.4955 30.168C66.6795 30.672 65.8875 31.248 65.0715 31.776C64.4235 32.184 63.7515 32.544 63.1035 32.952C62.7195 33.192 62.3595 33.504 61.9515 33.744C61.1595 34.224 60.3435 34.704 59.5275 35.16C59.2875 35.28 58.9035 35.4 58.7355 35.016C58.5675 34.656 58.8795 34.488 59.1435 34.32C60.5595 33.408 61.9755 32.496 63.3915 31.608C65.2875 30.432 67.1835 29.256 69.0555 28.08C71.3355 26.64 73.6155 25.176 75.8955 23.736ZM98.4551 27.552C98.6951 27.528 99.0311 27.936 99.0551 28.224C99.0791 28.44 98.7911 28.752 98.5511 28.776C98.2631 28.824 97.9751 28.536 97.9751 28.224C97.9511 27.912 98.1911 27.576 98.4551 27.552Z" fill="white"/>
</g>
<defs>
<clipPath id="clip0_3299_54">
<rect width="481" height="39" fill="white"/>
</clipPath>
</defs>
</svg>
