<svg width="481" height="39" viewBox="0 0 481 39" fill="none" xmlns="http://www.w3.org/2000/svg">
<g clip-path="url(#clip0_3299_54)">
<path d="M401.056 38.24C397.936 38.24 396.608 35.616 396.608 32.48C396.608 29.344 397.936 26.704 401.056 26.704C404.176 26.704 405.504 29.344 405.504 32.48C405.504 35.616 404.176 38.24 401.056 38.24ZM401.056 36.656C403.008 36.656 403.648 34.784 403.648 32.48C403.648 30.176 403.008 28.288 401.056 28.288C399.104 28.288 398.448 30.176 398.448 32.48C398.448 34.784 399.104 36.656 401.056 36.656ZM408.176 30.864H406.384C406.384 28.48 407.664 26.704 410.496 26.704C412.544 26.704 414.16 27.92 414.16 30.032C414.16 33.552 409.44 34.144 408.528 36.4V36.432H414.048V38H406.112C406.112 36.048 407.28 34.624 408.976 33.552C411.008 32.208 412.304 31.68 412.304 30.112C412.304 29.2 411.872 28.288 410.448 28.288C408.8 28.288 408.176 29.344 408.176 30.864ZM420.443 26.56L416.011 38H414.475L418.907 26.56H420.443ZM424.893 38.24C421.773 38.24 420.445 35.616 420.445 32.48C420.445 29.344 421.773 26.704 424.893 26.704C428.013 26.704 429.341 29.344 429.341 32.48C429.341 35.616 428.013 38.24 424.893 38.24ZM424.893 36.656C426.845 36.656 427.485 34.784 427.485 32.48C427.485 30.176 426.845 28.288 424.893 28.288C422.941 28.288 422.285 30.176 422.285 32.48C422.285 34.784 422.941 36.656 424.893 36.656ZM437.083 38H435.227V35.488H429.995V33.76L435.227 26.944H437.083V33.92H438.635V35.488H437.083V38ZM435.227 29.248L431.643 33.92H435.227V29.248ZM444.826 26.56L440.394 38H438.858L443.29 26.56H444.826ZM446.842 30.864H445.05C445.05 28.48 446.33 26.704 449.162 26.704C451.21 26.704 452.826 27.92 452.826 30.032C452.826 33.552 448.106 34.144 447.194 36.4V36.432H452.714V38H444.778C444.778 36.048 445.946 34.624 447.642 33.552C449.674 32.208 450.97 31.68 450.97 30.112C450.97 29.2 450.538 28.288 449.114 28.288C447.466 28.288 446.842 29.344 446.842 30.864ZM458.128 38.24C455.008 38.24 453.68 35.616 453.68 32.48C453.68 29.344 455.008 26.704 458.128 26.704C461.248 26.704 462.576 29.344 462.576 32.48C462.576 35.616 461.248 38.24 458.128 38.24ZM458.128 36.656C460.08 36.656 460.72 34.784 460.72 32.48C460.72 30.176 460.08 28.288 458.128 28.288C456.176 28.288 455.52 30.176 455.52 32.48C455.52 34.784 456.176 36.656 458.128 36.656ZM465.249 30.864H463.457C463.457 28.48 464.737 26.704 467.569 26.704C469.617 26.704 471.233 27.92 471.233 30.032C471.233 33.552 466.513 34.144 465.601 36.4V36.432H471.121V38H463.185C463.185 36.048 464.353 34.624 466.049 33.552C468.081 32.208 469.377 31.68 469.377 30.112C469.377 29.2 468.945 28.288 467.521 28.288C465.873 28.288 465.249 29.344 465.249 30.864ZM476.504 30.544C478.632 30.544 480.088 32.08 480.088 34.24C480.088 36.704 478.312 38.24 476.008 38.24C473.304 38.24 471.832 36.64 471.768 34.736H473.608C473.72 35.728 474.376 36.656 475.912 36.656C477.272 36.656 478.232 35.824 478.232 34.224C478.232 32.72 477.352 32.016 476.008 32.016C475.144 32.016 474.36 32.32 473.832 32.976H471.96L473.16 26.944H479.528V28.512H474.552L473.96 31.472V31.504C474.536 30.912 475.352 30.544 476.504 30.544Z" fill="#F1EFE0"/>
<path d="M1.128 25.128C-0.048 24.48 -0.36 23.424 0.432 22.344C0.912 21.672 1.512 21.048 2.184 20.544C4.368 18.912 6.864 17.904 9.456 17.16C12.696 16.2 16.008 15.576 19.344 15.096C21.6 14.784 23.88 14.472 26.16 14.184C26.616 14.136 26.976 13.968 27.312 13.656C29.76 11.4 32.232 9.168 34.68 6.888C35.112 6.48 35.544 6.168 36.168 6.192C36.648 6.216 36.888 6.432 36.792 6.888C36.744 7.176 36.576 7.44 36.432 7.68C35.328 9.312 34.248 10.92 33.144 12.552C33.024 12.744 32.904 12.96 32.808 13.176C32.712 13.344 32.736 13.488 33 13.464C34.44 13.344 35.88 13.224 37.32 13.104C39.384 12.912 41.424 12.72 43.464 12.552C45.36 12.408 47.232 12.264 49.104 12.168C50.664 12.096 52.2 12.12 53.76 12.144C54.096 12.144 54.456 12.312 54.768 12.48C54.864 12.528 54.84 12.84 54.888 13.008C54.72 13.008 54.576 13.056 54.432 13.032C54.048 12.96 53.664 12.792 53.28 12.792C50.304 12.696 47.376 13.008 44.424 13.248C42.504 13.392 40.608 13.512 38.712 13.704C37.08 13.848 35.448 14.04 33.816 14.208C33.648 14.232 33.48 14.256 33.312 14.232C32.496 14.112 31.968 14.448 31.656 15.216C30.576 17.784 29.448 20.328 28.368 22.896C27.432 25.128 26.544 27.384 25.608 29.64C25.488 29.952 25.296 30.24 25.128 30.504C24.768 31.08 24.264 31.176 23.784 30.72C23.496 30.456 23.208 30.096 23.136 29.736C22.8 28.248 21.768 27.48 20.472 26.928C19.152 26.376 17.784 26.112 16.368 25.896C15.768 25.8 15.312 26.04 14.832 26.424C13.296 27.624 12.024 29.112 10.488 30.288C9.72 30.888 9.096 31.632 8.352 32.28C7.272 33.216 6.168 34.104 5.04 34.992C4.92 35.088 4.728 35.208 4.584 35.184C4.368 35.136 4.128 35.016 3.912 34.92C4.008 34.752 4.08 34.584 4.2 34.464C7.272 31.704 10.32 28.968 13.368 26.208C13.44 26.136 13.536 26.088 13.584 25.992C13.776 25.8 13.632 25.68 13.44 25.656C13.104 25.632 12.768 25.584 12.432 25.608C11.064 25.656 9.672 25.728 8.304 25.8C8.304 25.776 8.304 25.752 8.304 25.728C6.648 25.728 4.992 25.752 3.36 25.728C2.568 25.704 1.824 25.512 1.128 25.128ZM31.056 11.88C30.408 12.432 29.736 13.008 29.088 13.584C29.04 13.632 29.04 13.752 28.992 13.848C29.064 13.848 29.112 13.896 29.184 13.896C30.144 13.8 31.104 13.776 31.44 12.576C31.56 12.144 31.896 11.76 32.136 11.376C32.184 11.28 32.232 11.184 32.28 11.112C32.28 11.064 32.256 11.016 32.232 10.968C32.184 10.992 32.112 10.992 32.064 11.04C31.728 11.328 31.392 11.592 31.056 11.88ZM28.632 14.712C27.936 14.688 27.408 15.072 26.928 15.48C25.992 16.296 25.104 17.184 24.192 18C23.448 18.672 22.656 19.296 21.912 19.968C21 20.76 20.136 21.576 19.248 22.416C18.6 22.992 17.952 23.568 17.352 24.192C16.824 24.72 16.848 24.744 17.544 24.912C18.072 25.056 18.6 25.152 19.104 25.296C20.64 25.704 22.032 26.352 23.088 27.576C23.376 27.912 23.616 28.344 23.88 28.728C24.096 29.016 24.216 29.016 24.384 28.68C24.432 28.56 24.48 28.44 24.528 28.32C25.344 26.28 26.136 24.24 26.976 22.224C27.984 19.872 29.016 17.544 30.048 15.216C30.12 15.048 30.192 14.904 30.288 14.688C30.144 14.64 30.048 14.52 29.928 14.544C29.496 14.568 29.064 14.736 28.632 14.712ZM4.368 19.944C3.216 20.568 2.136 21.336 1.296 22.368C0.36 23.496 0.624 24.384 2.04 24.72C3.264 25.008 4.512 25.032 5.76 24.96C7.776 24.864 9.792 24.744 11.712 24.624C12.552 24.624 13.296 24.576 14.04 24.648C14.808 24.696 15.36 24.48 15.936 23.952C17.64 22.32 19.392 20.76 21.144 19.176C22.536 17.928 23.904 16.704 25.296 15.456C25.392 15.384 25.44 15.24 25.488 15.144C25.368 15.12 25.248 15.048 25.152 15.072C23.424 15.264 21.696 15.432 19.968 15.696C17.736 16.056 15.528 16.44 13.32 16.872C10.2 17.52 7.176 18.432 4.368 19.944ZM33.5111 24.408C32.8871 24.672 32.2631 24.936 31.6151 25.128C30.8471 25.368 29.9591 24.816 30.0551 23.52C30.1511 23.232 30.3191 22.632 30.5831 22.104C31.0631 21.096 31.7111 20.184 32.4311 19.344C34.4951 16.92 36.8231 14.808 39.4391 13.008C39.7271 12.816 39.9911 12.624 40.2791 12.48C40.7591 12.216 41.2391 12.312 41.5271 12.648C41.8631 13.056 41.8871 13.44 41.5751 13.896C41.3831 14.208 41.1431 14.52 40.8551 14.76C40.0391 15.48 39.2231 16.2 38.3591 16.824C37.3511 17.568 36.2711 18.216 35.2391 18.912C34.3031 19.56 33.2951 20.088 32.5991 21.048C31.9511 21.936 31.3031 22.848 30.9431 23.928C30.8231 24.312 30.8951 24.408 31.2791 24.312C31.8311 24.168 32.3831 23.976 32.9351 23.76C35.1431 22.92 37.3511 22.032 39.5591 21.192C40.0631 21 40.5671 20.832 41.0711 20.712C41.1911 20.664 41.4071 20.736 41.4551 20.832C41.5751 21 41.4551 21.168 41.2871 21.24C40.8551 21.456 40.4231 21.648 39.9671 21.816C39.4391 22.056 38.8871 22.248 38.3591 22.464C36.7511 23.112 35.1431 23.76 33.5111 24.408ZM35.8871 17.472C35.8391 17.52 35.8391 17.592 35.8151 17.664C35.8631 17.64 35.9591 17.64 36.0071 17.616C36.7991 17.04 37.6391 16.512 38.3831 15.864C39.1271 15.24 39.7991 14.52 40.5191 13.848C40.5911 13.776 40.6391 13.68 40.6871 13.608C40.6631 13.56 40.6631 13.536 40.6631 13.536C40.6151 13.536 40.5191 13.512 40.4711 13.536C39.7031 14.16 38.9351 14.76 38.1911 15.384C37.3991 16.056 36.6551 16.776 35.8871 17.472ZM43.4181 24.264C42.4341 24.744 41.3781 25.032 40.2981 25.128C39.1941 25.224 38.6181 24.456 39.0501 23.448C39.6501 21.984 40.6821 20.856 41.8341 19.8C42.0021 19.656 42.2181 19.584 42.4341 19.488C42.8661 19.32 43.1061 19.392 43.3461 19.752C43.5861 20.088 43.7541 20.472 43.7301 20.88C43.7301 21.912 43.2261 22.632 42.0741 22.584C41.7861 22.536 41.4981 22.536 41.2581 22.416C40.8981 22.224 40.6581 22.392 40.4661 22.632C40.1541 23.064 39.8901 23.52 39.6501 24C39.5301 24.192 39.6261 24.384 39.9141 24.384C40.2021 24.384 40.4901 24.384 40.7301 24.312C41.8341 24 42.9381 23.688 43.9941 23.28C46.0101 22.488 48.0021 21.648 50.0181 20.832C50.2581 20.736 50.6181 20.472 50.7621 20.736C50.9301 21.096 50.4741 21.144 50.2581 21.24C48.5781 21.984 46.8741 22.704 45.1941 23.448C44.5941 23.712 43.9941 24 43.4181 24.264ZM42.3621 20.736C42.1461 20.88 41.9541 21.024 41.7621 21.192C41.7141 21.24 41.6421 21.336 41.6661 21.36C41.7141 21.432 41.8101 21.48 41.8341 21.504C42.2901 21.528 42.5781 21.384 42.6981 21.072C42.7701 20.952 42.7461 20.784 42.7701 20.64C42.6261 20.664 42.4821 20.664 42.3621 20.736ZM49.4672 23.424C50.1152 22.464 50.1872 21.456 49.8752 20.376C49.7792 20.064 49.7312 19.752 49.6832 19.416C49.6352 19.08 49.7792 18.84 50.0912 18.672C50.7632 18.336 51.5072 18.36 52.2272 18.312C52.5152 18.288 52.7312 18.528 52.8272 18.84C52.9712 19.248 53.0912 19.632 53.2352 20.04C53.4992 20.784 53.4992 20.784 54.0992 20.304C54.6752 19.848 55.2272 19.392 55.8272 18.936C56.0432 18.768 56.2832 18.624 56.5232 18.504C56.7152 18.384 56.9072 18.408 57.0512 18.6C57.2192 18.816 57.1472 19.032 56.9552 19.2C56.7632 19.368 56.5472 19.512 56.3552 19.68C55.6832 20.232 55.0352 20.832 54.3632 21.408C54.0032 21.696 53.9792 21.768 54.2672 22.128C54.5552 22.512 54.8912 22.776 55.3952 22.824C55.7792 22.872 56.2112 22.944 56.5952 22.896C58.6352 22.68 60.6512 22.344 62.5712 21.552C63.0272 21.36 63.4592 21.12 63.9152 20.88C64.0832 20.784 64.2512 20.544 64.4432 20.808C64.5872 21.024 64.4192 21.24 64.2032 21.36C63.7712 21.648 63.3392 22.008 62.8592 22.152C61.5872 22.56 60.3632 23.112 59.0672 23.328C58.0352 23.52 56.9792 23.592 55.9472 23.712C54.9632 23.688 54.2912 23.256 53.8112 22.44C53.6192 22.152 53.4752 22.152 53.2112 22.368C52.2992 23.064 51.3632 23.784 50.4272 24.48C50.1632 24.672 49.8992 24.84 49.6112 25.032C49.3712 25.2 49.1552 25.152 48.9392 24.912C48.7712 24.696 48.7232 24.48 48.9152 24.24C49.1072 23.976 49.2752 23.688 49.4672 23.424ZM50.4512 19.032C50.1152 19.104 50.0192 19.368 50.0912 19.68C50.1632 19.896 50.2352 20.112 50.2832 20.328C50.4032 20.88 50.5232 21.456 50.6192 21.936C50.5472 22.296 50.4992 22.56 50.4512 22.848C50.4512 22.896 50.4752 22.968 50.4752 22.968C50.5472 22.992 50.6192 22.992 50.6672 22.944C51.3872 22.416 52.0832 21.888 52.7792 21.36C52.9712 21.216 53.0912 21.048 53.0192 20.784C52.8512 20.232 52.7072 19.68 52.4912 19.128C52.4192 18.984 52.2032 18.768 52.0592 18.768C51.5312 18.816 50.9792 18.912 50.4512 19.032ZM66.5983 17.688C66.8383 17.664 67.1743 18.096 67.2223 18.456C67.2463 18.744 66.8623 19.224 66.5503 19.272C66.3103 19.296 65.9263 18.936 65.8783 18.648C65.8543 18.312 66.2863 17.736 66.5983 17.688ZM64.4383 20.28C64.6543 20.16 64.8223 20.088 64.9423 20.088C65.0623 20.088 65.1583 20.136 65.2543 20.256C65.4703 20.544 65.4463 20.904 65.1343 21.192C64.3903 21.792 63.8143 22.512 63.3343 23.328C63.1903 23.568 63.0943 23.832 62.9743 24.072C62.8783 24.312 63.0223 24.36 63.1903 24.288C64.0543 23.952 64.8943 23.616 65.7103 23.232C67.4143 22.44 69.0703 21.6 70.7743 20.784C70.9183 20.712 71.2783 20.664 71.3023 20.712C71.4223 21 71.1343 21.072 70.9423 21.168C69.6463 21.864 68.3503 22.512 67.0303 23.208C66.3343 23.568 65.6383 24.024 64.9183 24.36C64.2703 24.672 63.5983 24.888 63.1663 25.056C62.4463 25.08 62.0623 24.744 62.0383 24.24C62.0383 24 62.0623 23.784 62.1343 23.544C62.4463 22.32 63.1903 21.336 64.1263 20.496C64.2223 20.4 64.3423 20.352 64.4383 20.28ZM77.9987 21.36C76.3187 22.176 74.6387 22.992 72.9827 23.808C72.5267 24.024 72.1427 24.288 72.2147 24.888C72.2387 25.128 72.1427 25.392 72.0467 25.632C71.6627 26.616 69.9347 27.792 68.8307 27.792C68.7347 27.792 68.6147 27.792 68.4947 27.768C67.9187 27.648 67.6307 27.072 67.9907 26.616C68.3507 26.136 68.8067 25.728 69.2867 25.344C69.7907 24.96 70.3667 24.624 70.9427 24.264C71.4947 23.928 71.5187 23.88 71.3267 23.232C71.1827 22.68 71.0147 22.128 70.8947 21.552C70.6787 20.496 70.9427 19.872 71.9267 19.368C72.5507 19.032 73.1747 18.744 73.8467 18.504C74.3027 18.336 74.6147 18.528 74.7587 18.912C74.8547 19.2 74.7827 19.368 74.4707 19.488C73.9187 19.728 73.3427 19.944 72.7907 20.184C72.5987 20.28 72.3827 20.376 72.1907 20.52C71.7587 20.808 71.5667 21.24 71.6627 21.768C71.7587 22.248 71.9027 22.728 72.0227 23.232C72.0947 23.496 72.2627 23.52 72.4787 23.4C73.1267 23.112 73.7507 22.8 74.3987 22.488C75.5507 21.96 76.6787 21.432 77.8307 20.904C78.0227 20.832 78.3107 20.592 78.4307 20.856C78.5987 21.192 78.2147 21.264 77.9987 21.36ZM71.1347 25.416C71.1827 25.344 71.2307 25.248 71.2547 25.152C71.2787 25.08 71.2547 24.984 71.2067 24.936C71.1827 24.912 71.0627 24.912 71.0147 24.936C70.4387 25.32 69.8387 25.704 69.2867 26.112C68.9987 26.328 68.7827 26.592 68.5187 26.856C68.4947 26.88 68.4947 26.976 68.5187 27.048C68.5187 27.072 68.5907 27.096 68.6387 27.096C68.6867 27.096 68.7347 27.096 68.7827 27.096C69.7667 26.808 70.5107 26.208 71.1347 25.416ZM104.896 11.52C104.92 11.592 104.824 11.736 104.8 11.856C104.68 11.808 104.512 11.808 104.44 11.736C103.96 11.28 103.936 10.584 104.44 10.104C104.824 9.768 105.304 9.48 105.784 9.24C107.752 8.328 109.864 7.848 111.976 7.416C115.648 6.696 119.344 6.24 123.112 6.168C125.656 6.12 128.224 6.048 130.792 6.072C132.184 6.096 133.6 6.264 135.016 6.432C135.472 6.48 135.952 6.6 136.36 6.792C137.08 7.104 137.2 7.44 137.008 8.16C136.888 8.64 136.624 9.024 136.192 9.264C135.712 9.504 135.256 9.816 134.776 10.032C132.496 11.016 130.192 11.976 127.912 12.984C126.736 13.512 125.584 14.064 124.504 14.76C122.992 15.744 123.184 16.032 124.288 17.088C124.936 17.712 125.704 18.216 126.424 18.792C126.808 19.104 127.216 19.416 127.552 19.776C128.512 20.784 128.368 22.08 127.24 22.896C127.024 23.064 126.784 23.184 126.544 23.304C125.488 23.832 124.432 24.312 123.28 24.576C122.704 24.72 122.152 25.008 121.576 25.176C120.376 25.512 119.176 25.8 118 26.136C117.376 26.304 116.8 26.496 116.176 26.664C115.384 26.856 114.568 27.024 113.752 27.24C112.384 27.6 110.992 27.96 109.624 28.32C109.552 28.344 109.48 28.392 109.432 28.392C108.28 28.296 107.776 29.064 107.344 29.952C106.816 31.08 106.216 32.16 105.712 33.288C105.472 33.816 105.376 34.392 105.208 34.92C105.136 35.088 104.992 35.304 104.848 35.304C104.704 35.328 104.464 35.184 104.392 35.04C104.272 34.848 104.224 34.584 104.272 34.368C104.368 33.864 104.464 33.36 104.656 32.904C105.136 31.8 105.688 30.696 106.192 29.592C106.264 29.472 106.264 29.28 106.288 29.136C106.12 29.136 105.952 29.088 105.808 29.136C104.944 29.424 104.104 29.736 103.216 29.88C102.256 30.024 101.344 30.264 100.432 30.576C99.8076 30.792 99.0636 30.84 98.3916 31.008C96.5196 31.488 94.6476 32.016 92.7516 32.472C91.1916 32.88 89.6316 33.216 88.0476 33.6C87.9276 33.624 87.7836 33.672 87.6636 33.672C87.5436 33.648 87.3996 33.552 87.3756 33.456C87.3276 33.36 87.3756 33.144 87.4476 33.096C87.7356 32.952 88.0476 32.808 88.3596 32.712C90.6396 32.088 92.9196 31.488 95.1996 30.912C98.1756 30.144 101.128 29.4 104.104 28.656C104.872 28.464 105.616 28.272 106.384 28.128C106.912 28.032 107.248 27.744 107.536 27.288C108.616 25.44 109.696 23.616 110.848 21.84C113.104 18.36 115.408 14.904 118 11.688C118.336 11.28 118.72 10.896 119.128 10.512C119.2 10.44 119.464 10.416 119.56 10.488C119.656 10.56 119.752 10.8 119.704 10.92C119.608 11.232 119.488 11.568 119.296 11.832C118.144 13.392 116.968 14.952 115.84 16.536C114.832 17.952 113.848 19.416 112.912 20.88C111.712 22.704 110.536 24.552 109.384 26.4C109.216 26.688 109.12 27.024 108.976 27.312C109.312 27.288 109.624 27.288 109.936 27.216C114.784 26.064 119.608 24.888 124.36 23.376C125.008 23.16 125.608 22.872 126.232 22.608C126.376 22.536 126.544 22.464 126.688 22.368C127.744 21.648 127.792 21.168 126.832 20.328C126.28 19.848 125.656 19.44 125.08 18.984C124.504 18.552 123.928 18.168 123.4 17.688C122.296 16.68 122.224 15.264 123.304 14.232C123.88 13.68 124.552 13.2 125.248 12.84C126.448 12.192 127.672 11.664 128.92 11.112C130.792 10.296 132.688 9.504 134.56 8.688C134.944 8.52 135.4 8.424 135.568 7.944C135.16 7.872 134.752 7.704 134.32 7.68C132.064 7.56 129.808 7.44 127.552 7.344C127.552 7.368 127.552 7.416 127.552 7.464C126.04 7.464 124.528 7.416 122.992 7.464C121.768 7.512 120.52 7.656 119.272 7.776C117.736 7.92 116.2 8.04 114.664 8.28C112.456 8.64 110.248 9.024 108.064 9.528C107.08 9.768 106.192 10.296 105.256 10.68C104.848 10.848 104.632 11.064 104.896 11.52ZM131.455 27.552C131.695 27.528 132.031 27.936 132.055 28.224C132.079 28.44 131.791 28.752 131.551 28.776C131.263 28.824 130.975 28.536 130.975 28.224C130.951 27.912 131.191 27.576 131.455 27.552Z" fill="white"/>
</g>
<defs>
<clipPath id="clip0_3299_54">
<rect width="481" height="39" fill="white"/>
</clipPath>
</defs>
</svg>
