<svg width="481" height="39" viewBox="0 0 481 39" fill="none" xmlns="http://www.w3.org/2000/svg">
<g clip-path="url(#clip0_3336_2)">
<path d="M399.184 26.944H400.672V38H398.816V29.984C398.16 30.624 397.424 30.624 396.496 30.624V29.296C398.496 29.296 399.072 28.304 399.184 26.944ZM408.996 38H407.14V35.488H401.908V33.76L407.14 26.944H408.996V33.92H410.548V35.488H408.996V38ZM407.14 29.248L403.556 33.92H407.14V29.248ZM416.74 26.56L412.307 38H410.771L415.203 26.56H416.74ZM421.19 38.24C418.07 38.24 416.742 35.616 416.742 32.48C416.742 29.344 418.07 26.704 421.19 26.704C424.31 26.704 425.638 29.344 425.638 32.48C425.638 35.616 424.31 38.24 421.19 38.24ZM421.19 36.656C423.142 36.656 423.782 34.784 423.782 32.48C423.782 30.176 423.142 28.288 421.19 28.288C419.238 28.288 418.582 30.176 418.582 32.48C418.582 34.784 419.238 36.656 421.19 36.656ZM433.379 38H431.523V35.488H426.291V33.76L431.523 26.944H433.379V33.92H434.931V35.488H433.379V38ZM431.523 29.248L427.939 33.92H431.523V29.248ZM441.123 26.56L436.691 38H435.155L439.587 26.56H441.123ZM443.139 30.864H441.347C441.347 28.48 442.627 26.704 445.459 26.704C447.507 26.704 449.123 27.92 449.123 30.032C449.123 33.552 444.403 34.144 443.491 36.4V36.432H449.011V38H441.075C441.075 36.048 442.243 34.624 443.939 33.552C445.971 32.208 447.267 31.68 447.267 30.112C447.267 29.2 446.835 28.288 445.411 28.288C443.763 28.288 443.139 29.344 443.139 30.864ZM454.425 38.24C451.305 38.24 449.977 35.616 449.977 32.48C449.977 29.344 451.305 26.704 454.425 26.704C457.545 26.704 458.873 29.344 458.873 32.48C458.873 35.616 457.545 38.24 454.425 38.24ZM454.425 36.656C456.377 36.656 457.017 34.784 457.017 32.48C457.017 30.176 456.377 28.288 454.425 28.288C452.473 28.288 451.817 30.176 451.817 32.48C451.817 34.784 452.473 36.656 454.425 36.656ZM461.546 30.864H459.754C459.754 28.48 461.034 26.704 463.866 26.704C465.914 26.704 467.53 27.92 467.53 30.032C467.53 33.552 462.81 34.144 461.898 36.4V36.432H467.418V38H459.482C459.482 36.048 460.65 34.624 462.346 33.552C464.378 32.208 465.674 31.68 465.674 30.112C465.674 29.2 465.242 28.288 463.818 28.288C462.17 28.288 461.546 29.344 461.546 30.864ZM472.801 30.544C474.929 30.544 476.385 32.08 476.385 34.24C476.385 36.704 474.609 38.24 472.305 38.24C469.601 38.24 468.129 36.64 468.065 34.736H469.905C470.017 35.728 470.673 36.656 472.209 36.656C473.569 36.656 474.529 35.824 474.529 34.224C474.529 32.72 473.649 32.016 472.305 32.016C471.441 32.016 470.657 32.32 470.129 32.976H468.257L469.457 26.944H475.825V28.512H470.849L470.257 31.472V31.504C470.833 30.912 471.649 30.544 472.801 30.544Z" fill="#F1EFE0"/>
<path d="M25.2 29.88C24.936 29.856 24.672 29.808 24.408 29.712C20.616 28.656 16.824 27.6 13.032 26.52C11.352 26.04 9.696 25.488 8.016 24.96C7.848 24.912 7.704 24.84 7.488 24.744C7.296 24.912 7.056 25.032 6.888 25.224C6.144 26.136 5.448 27.072 4.704 27.984C4.296 28.512 3.816 28.968 3.408 29.496C2.568 30.528 1.776 31.608 0.984 32.664C0.864 32.808 0.768 32.952 0.672 33.072C0.504 33.264 0.264 33.384 0.072 33.144C-0.024 33.048 -0.024 32.76 0.072 32.64C0.624 31.752 1.2 30.864 1.848 30.048C3.24 28.248 4.704 26.472 6.144 24.696C6.408 24.336 6.696 24.048 6.552 23.52C6.504 23.328 6.72 23.04 6.84 22.824C6.888 22.728 6.984 22.68 7.08 22.632C9.12 21.792 10.152 19.872 11.568 18.36C13.944 15.888 16.224 13.32 18.576 10.8C18.744 10.608 18.96 10.416 19.176 10.272C19.272 10.224 19.488 10.2 19.536 10.272C19.656 10.368 19.752 10.584 19.728 10.68C19.632 10.944 19.488 11.184 19.296 11.376C18.408 12.36 17.52 13.344 16.608 14.304C15.6 15.384 14.52 16.392 13.584 17.52C12.984 18.264 12.432 19.008 11.712 19.608C11.448 19.8 11.352 20.16 11.184 20.448C11.184 20.472 11.328 20.664 11.4 20.64C11.616 20.616 11.856 20.52 12.072 20.448C15 19.416 17.904 18.384 20.832 17.352C25.056 15.84 29.256 14.328 33.48 12.864C37.56 11.424 41.616 10.008 45.696 8.616C46.248 8.424 46.8 8.28 47.352 8.136C47.616 8.064 47.928 8.064 48.024 8.4C48.096 8.736 48.048 9.096 47.664 9.24C47.496 9.312 47.352 9.384 47.184 9.432C43.488 10.536 39.888 11.976 36.24 13.248C32.472 14.568 28.704 15.912 24.936 17.256C21.6 18.432 18.288 19.632 14.952 20.832C13.272 21.408 11.592 21.984 9.912 22.608C9.48 22.776 9.072 23.04 8.688 23.28C8.52 23.4 8.424 23.64 8.304 23.832C8.448 23.928 8.616 24.072 8.784 24.144C9.48 24.384 10.176 24.648 10.896 24.864C15.504 26.232 20.112 27.576 24.744 28.944C24.984 29.016 25.248 29.112 25.464 29.28C25.536 29.328 25.536 29.568 25.512 29.712C25.488 29.808 25.296 29.904 25.2 29.88ZM26.1686 24C25.8566 24.168 25.5446 24.24 25.2326 24C24.9446 23.76 24.8486 23.376 25.0166 22.944C25.0646 22.8 25.1366 22.68 25.2326 22.56C25.3526 22.344 25.4966 22.128 25.6646 21.936C26.3366 21.12 26.9846 20.256 27.8486 19.632C28.5926 19.104 29.1446 19.152 29.7926 19.8C29.8406 19.848 29.8646 19.872 29.8886 19.92C30.1046 20.208 30.2966 20.256 30.5846 20.016C30.8006 19.824 31.0406 19.68 31.2566 19.536C31.5926 19.344 31.8566 19.464 31.9286 19.848C32.0006 20.112 31.9286 20.328 31.7606 20.544C31.2086 21.264 30.8966 22.128 30.5366 22.944C30.5126 23.016 30.5366 23.136 30.5606 23.136C30.6326 23.184 30.7526 23.184 30.8246 23.16C31.0406 23.064 31.2566 22.944 31.4726 22.8C33.1766 21.792 32.9126 21.864 34.6166 20.856C34.7846 20.76 35.1446 20.424 35.3126 20.688C35.5046 21.024 35.1206 21.144 34.9286 21.264C33.6806 22.056 34.2566 21.768 33.0086 22.584C32.4326 22.944 31.8806 23.352 31.3286 23.736C31.2086 23.808 31.0646 23.904 30.9206 23.952C30.3206 24.192 29.7926 23.856 29.7686 22.992C29.8886 22.704 30.0326 22.224 30.2006 21.744C30.2726 21.576 30.3686 21.432 30.4406 21.264C30.4646 21.192 30.4406 21.096 30.4406 21C30.3686 21.024 30.2486 21.024 30.1766 21.072C29.9126 21.264 29.6246 21.456 29.3846 21.672C28.3526 22.488 27.3446 23.352 26.1686 24ZM28.4726 20.64C27.8006 21.288 27.1526 21.96 26.5046 22.632C26.4566 22.68 26.4806 22.8 26.4566 22.872C26.5286 22.872 26.6246 22.872 26.6726 22.848C27.6086 22.152 28.5686 21.48 29.5046 20.784C29.5286 20.76 29.5286 20.712 29.5766 20.64C29.5046 20.568 29.4566 20.496 29.3606 20.448C29.0246 20.28 28.7126 20.4 28.4726 20.64ZM40.5386 23.52C39.5066 24.12 38.4506 24.672 37.4186 25.224C37.0826 25.416 36.7466 25.44 36.4106 25.224C36.0746 25.032 35.9786 24.84 36.0746 24.48C36.1466 24.168 36.2906 23.856 36.4106 23.568C36.6026 23.064 36.7706 22.56 37.0106 22.08C37.3466 21.336 36.8906 20.832 36.5546 20.28C36.5306 20.256 36.3146 20.28 36.2426 20.328C35.8826 20.664 35.5466 21 35.2106 21.336C35.0426 21.504 34.8986 21.672 34.7306 21.816C34.5866 21.912 34.4186 21.984 34.2506 21.984C33.8906 21.984 33.7466 21.744 33.9626 21.432C34.1786 21.144 34.4186 20.88 34.6586 20.616C35.2826 19.872 36.0746 19.248 36.5786 18.384C36.7466 18.072 36.8906 18.072 37.1786 18.264C37.4426 18.456 37.7546 18.624 37.6346 19.224C37.6346 19.272 37.6106 19.488 37.5866 19.728C37.5386 20.088 37.6106 20.424 37.8506 20.712C38.3066 21.24 38.2826 21.816 37.9946 22.416C37.7306 22.992 37.4426 23.544 37.1786 24.12C37.1306 24.192 37.1546 24.312 37.1546 24.408C37.2506 24.384 37.3466 24.408 37.4186 24.36C38.4266 23.832 39.4106 23.28 40.4186 22.728C41.7386 21.984 43.0826 21.264 44.4026 20.544C44.5706 20.472 44.7866 20.28 44.9546 20.52C45.1226 20.784 44.8826 20.952 44.6906 21.072C44.2826 21.336 43.8506 21.6 43.4186 21.864C42.4586 22.416 41.4986 22.992 40.5386 23.52ZM44.7285 24.072C44.3925 24.216 44.0085 24.336 43.6485 24.36C43.0245 24.432 42.5685 23.904 42.7845 23.304C42.9765 22.752 43.2405 22.224 43.5285 21.72C43.9845 20.928 44.4405 20.136 44.9925 19.416C45.2325 19.056 45.6405 18.768 46.0245 18.576C46.7445 18.168 47.3445 18.36 47.8005 19.032C47.8965 19.152 47.9685 19.296 48.0165 19.416C48.1125 19.608 48.2085 19.824 48.3045 20.016C48.2805 19.8 48.2805 19.608 48.2565 19.416C48.2085 18.984 48.3285 18.72 48.6885 18.528C48.9285 18.408 49.1685 18.336 49.4085 18.528C49.6245 18.672 49.7205 18.912 49.6725 19.176C49.6245 19.392 49.5045 19.608 49.4325 19.824C49.2645 20.208 49.2885 20.376 49.6725 20.568C50.0085 20.736 50.3685 20.856 50.7285 20.904C51.2805 21 51.8565 21 52.4085 21.024V21C52.6245 21.024 52.8645 21 53.0805 21.072C53.2005 21.096 53.3205 21.264 53.3445 21.36C53.3685 21.456 53.2245 21.576 53.1525 21.648C53.1045 21.696 53.0085 21.72 52.9365 21.72C51.6165 21.864 50.2965 21.96 49.1925 21C48.8805 20.736 48.6885 20.784 48.4725 21.12C47.8485 22.032 47.0085 22.704 46.0965 23.304C45.6405 23.568 45.2085 23.856 44.7285 24.072ZM43.6005 23.304C43.5765 23.352 43.6485 23.472 43.6965 23.496C43.7925 23.52 43.9125 23.496 43.9845 23.448C45.4005 22.896 46.6005 22.056 47.6085 20.928C47.6805 20.856 47.7285 20.76 47.7525 20.712C47.6085 20.28 47.5125 19.896 47.3445 19.536C47.2725 19.416 47.0085 19.344 46.8405 19.368C46.3125 19.416 45.9045 19.728 45.5685 20.112C44.7765 21.096 44.1765 22.2 43.6005 23.304ZM54.9564 24.408C54.3324 24.672 53.7084 24.936 53.0604 25.128C52.2924 25.368 51.4044 24.816 51.5004 23.52C51.5964 23.232 51.7644 22.632 52.0284 22.104C52.5084 21.096 53.1564 20.184 53.8764 19.344C55.9404 16.92 58.2684 14.808 60.8844 13.008C61.1724 12.816 61.4364 12.624 61.7244 12.48C62.2044 12.216 62.6844 12.312 62.9724 12.648C63.3084 13.056 63.3324 13.44 63.0204 13.896C62.8284 14.208 62.5884 14.52 62.3004 14.76C61.4844 15.48 60.6684 16.2 59.8044 16.824C58.7964 17.568 57.7164 18.216 56.6844 18.912C55.7484 19.56 54.7404 20.088 54.0444 21.048C53.3964 21.936 52.7484 22.848 52.3884 23.928C52.2684 24.312 52.3404 24.408 52.7244 24.312C53.2764 24.168 53.8284 23.976 54.3804 23.76C56.5884 22.92 58.7964 22.032 61.0044 21.192C61.5084 21 62.0124 20.832 62.5164 20.712C62.6364 20.664 62.8524 20.736 62.9004 20.832C63.0204 21 62.9004 21.168 62.7324 21.24C62.3004 21.456 61.8684 21.648 61.4124 21.816C60.8844 22.056 60.3324 22.248 59.8044 22.464C58.1964 23.112 56.5884 23.76 54.9564 24.408ZM57.3324 17.472C57.2844 17.52 57.2844 17.592 57.2604 17.664C57.3084 17.64 57.4044 17.64 57.4524 17.616C58.2444 17.04 59.0844 16.512 59.8284 15.864C60.5724 15.24 61.2444 14.52 61.9644 13.848C62.0364 13.776 62.0844 13.68 62.1324 13.608C62.1084 13.56 62.1084 13.536 62.1084 13.536C62.0604 13.536 61.9644 13.512 61.9164 13.536C61.1484 14.16 60.3804 14.76 59.6364 15.384C58.8444 16.056 58.1004 16.776 57.3324 17.472ZM64.8874 17.688C65.1274 17.664 65.4634 18.096 65.5114 18.456C65.5354 18.744 65.1514 19.224 64.8394 19.272C64.5994 19.296 64.2154 18.936 64.1674 18.648C64.1434 18.312 64.5754 17.736 64.8874 17.688ZM62.7274 20.28C62.9434 20.16 63.1114 20.088 63.2314 20.088C63.3514 20.088 63.4474 20.136 63.5434 20.256C63.7594 20.544 63.7354 20.904 63.4234 21.192C62.6794 21.792 62.1034 22.512 61.6234 23.328C61.4794 23.568 61.3834 23.832 61.2634 24.072C61.1674 24.312 61.3114 24.36 61.4794 24.288C62.3434 23.952 63.1834 23.616 63.9994 23.232C65.7034 22.44 67.3594 21.6 69.0634 20.784C69.2074 20.712 69.5674 20.664 69.5914 20.712C69.7114 21 69.4234 21.072 69.2314 21.168C67.9354 21.864 66.6394 22.512 65.3194 23.208C64.6234 23.568 63.9274 24.024 63.2074 24.36C62.5594 24.672 61.8874 24.888 61.4554 25.056C60.7354 25.08 60.3514 24.744 60.3274 24.24C60.3274 24 60.3514 23.784 60.4234 23.544C60.7354 22.32 61.4794 21.336 62.4154 20.496C62.5114 20.4 62.6314 20.352 62.7274 20.28ZM68.0317 24.072C67.7917 24.36 67.5518 24.432 67.3357 24.312C67.0477 24.144 66.8797 23.76 67.0477 23.448C67.2157 23.088 67.4317 22.728 67.6957 22.44C68.8238 21.144 69.9998 19.896 71.1518 18.624C71.2478 18.528 71.3438 18.432 71.4398 18.36C71.6318 18.192 71.7998 17.952 72.0878 18.192C72.3518 18.384 72.4478 18.792 72.2558 19.056C72.1118 19.296 71.8958 19.488 71.7278 19.704C71.5838 19.848 71.4158 19.968 71.2958 20.112C71.2478 20.16 71.2238 20.256 71.1998 20.328C71.2718 20.304 71.3918 20.328 71.4638 20.28C71.7518 20.136 72.0398 19.944 72.3278 19.824C72.8318 19.608 73.3598 19.368 73.8878 19.224C74.4398 19.08 74.8238 19.416 74.8478 20.136C74.7758 20.304 74.6558 20.616 74.5358 20.904C74.2958 21.432 74.0318 21.96 73.7918 22.488C73.7438 22.608 73.7438 22.776 73.7438 22.896C73.8878 22.896 74.0318 22.944 74.1758 22.896C75.2558 22.56 76.3358 22.2 77.4158 21.84C78.3758 21.504 79.3118 21.168 80.2718 20.832C80.3678 20.784 80.4637 20.736 80.5598 20.736C80.6318 20.76 80.7278 20.832 80.7758 20.88C80.7998 20.928 80.7758 21.048 80.7278 21.096C80.6318 21.192 80.5118 21.288 80.3678 21.36C79.9358 21.552 79.5038 21.744 79.0478 21.936C77.9198 22.368 76.7918 22.8 75.6398 23.208C75.1358 23.4 74.5838 23.544 74.0558 23.664C73.6718 23.76 73.2878 23.76 73.0238 23.4C72.7598 23.04 72.7838 22.632 72.9758 22.248C73.2158 21.792 73.4798 21.312 73.7438 20.856C73.8398 20.64 73.9358 20.4 74.0318 20.16C73.7678 20.208 73.4798 20.184 73.2398 20.304C72.2798 20.832 71.3438 21.432 70.3358 21.936C69.6638 22.272 69.1838 22.824 68.6558 23.304C68.4158 23.52 68.2477 23.808 68.0317 24.072ZM80.028 24C79.716 24.168 79.404 24.24 79.092 24C78.804 23.76 78.708 23.376 78.876 22.944C78.924 22.8 78.996 22.68 79.092 22.56C79.212 22.344 79.356 22.128 79.524 21.936C80.196 21.12 80.844 20.256 81.708 19.632C82.452 19.104 83.004 19.152 83.652 19.8C83.7 19.848 83.724 19.872 83.748 19.92C83.964 20.208 84.156 20.256 84.444 20.016C84.66 19.824 84.9 19.68 85.116 19.536C85.452 19.344 85.716 19.464 85.788 19.848C85.86 20.112 85.788 20.328 85.62 20.544C85.068 21.264 84.756 22.128 84.396 22.944C84.372 23.016 84.396 23.136 84.42 23.136C84.492 23.184 84.612 23.184 84.684 23.16C84.9 23.064 85.116 22.944 85.332 22.8C87.036 21.792 86.772 21.864 88.476 20.856C88.644 20.76 89.004 20.424 89.172 20.688C89.364 21.024 88.98 21.144 88.788 21.264C87.54 22.056 88.116 21.768 86.868 22.584C86.292 22.944 85.74 23.352 85.188 23.736C85.068 23.808 84.924 23.904 84.78 23.952C84.18 24.192 83.652 23.856 83.628 22.992C83.748 22.704 83.892 22.224 84.06 21.744C84.132 21.576 84.228 21.432 84.3 21.264C84.324 21.192 84.3 21.096 84.3 21C84.228 21.024 84.108 21.024 84.036 21.072C83.772 21.264 83.484 21.456 83.244 21.672C82.212 22.488 81.204 23.352 80.028 24ZM82.332 20.64C81.66 21.288 81.012 21.96 80.364 22.632C80.316 22.68 80.34 22.8 80.316 22.872C80.388 22.872 80.484 22.872 80.532 22.848C81.468 22.152 82.428 21.48 83.364 20.784C83.388 20.76 83.388 20.712 83.436 20.64C83.364 20.568 83.316 20.496 83.22 20.448C82.884 20.28 82.572 20.4 82.332 20.64ZM123.239 29.88C122.975 29.856 122.711 29.808 122.447 29.712C118.655 28.656 114.863 27.6 111.071 26.52C109.391 26.04 107.735 25.488 106.055 24.96C105.887 24.912 105.743 24.84 105.527 24.744C105.335 24.912 105.095 25.032 104.927 25.224C104.183 26.136 103.487 27.072 102.743 27.984C102.335 28.512 101.855 28.968 101.447 29.496C100.607 30.528 99.8151 31.608 99.0231 32.664C98.9031 32.808 98.8071 32.952 98.7111 33.072C98.5431 33.264 98.3031 33.384 98.1111 33.144C98.0151 33.048 98.0151 32.76 98.1111 32.64C98.6631 31.752 99.2391 30.864 99.8871 30.048C101.279 28.248 102.743 26.472 104.183 24.696C104.447 24.336 104.735 24.048 104.591 23.52C104.543 23.328 104.759 23.04 104.879 22.824C104.927 22.728 105.023 22.68 105.119 22.632C107.159 21.792 108.191 19.872 109.607 18.36C111.983 15.888 114.263 13.32 116.615 10.8C116.783 10.608 116.999 10.416 117.215 10.272C117.311 10.224 117.527 10.2 117.575 10.272C117.695 10.368 117.791 10.584 117.767 10.68C117.671 10.944 117.527 11.184 117.335 11.376C116.447 12.36 115.559 13.344 114.647 14.304C113.639 15.384 112.559 16.392 111.623 17.52C111.023 18.264 110.471 19.008 109.751 19.608C109.487 19.8 109.391 20.16 109.223 20.448C109.223 20.472 109.367 20.664 109.439 20.64C109.655 20.616 109.895 20.52 110.111 20.448C113.039 19.416 115.943 18.384 118.871 17.352C123.095 15.84 127.295 14.328 131.519 12.864C135.599 11.424 139.655 10.008 143.735 8.616C144.287 8.424 144.839 8.28 145.391 8.136C145.655 8.064 145.967 8.064 146.063 8.4C146.135 8.736 146.087 9.096 145.703 9.24C145.535 9.312 145.391 9.384 145.223 9.432C141.527 10.536 137.927 11.976 134.279 13.248C130.511 14.568 126.743 15.912 122.975 17.256C119.639 18.432 116.327 19.632 112.991 20.832C111.311 21.408 109.631 21.984 107.951 22.608C107.519 22.776 107.111 23.04 106.727 23.28C106.559 23.4 106.463 23.64 106.343 23.832C106.487 23.928 106.655 24.072 106.823 24.144C107.519 24.384 108.215 24.648 108.935 24.864C113.543 26.232 118.151 27.576 122.783 28.944C123.023 29.016 123.287 29.112 123.503 29.28C123.575 29.328 123.575 29.568 123.551 29.712C123.527 29.808 123.335 29.904 123.239 29.88ZM125.432 27.552C125.672 27.528 126.008 27.936 126.032 28.224C126.056 28.44 125.768 28.752 125.528 28.776C125.24 28.824 124.952 28.536 124.952 28.224C124.928 27.912 125.168 27.576 125.432 27.552Z" fill="white"/>
</g>
<defs>
<clipPath id="clip0_3336_2">
<rect width="481" height="39" fill="white"/>
</clipPath>
</defs>
</svg>
